<svg fill="#6366F1" role="img" viewBox="0 0 24 24" xmlns="http://www.w3.org/2000/svg"><title>Webhook</title><path d="M10.59 13.41c.41.39.41 1.03 0 1.42-.39.39-1.03.39-1.42 0a5.003 5.003 0 0 1 0-7.07l3.54-3.54a5.003 5.003 0 0 1 7.07 0 5.003 5.003 0 0 1 0 7.07l-1.49 1.49c.01-.36-.04-.72-.11-1.05l.92-.92a3.5 3.5 0 0 0 0-4.95 3.5 3.5 0 0 0-4.95 0l-3.54 3.54a3.5 3.5 0 0 0 0 4.95zm3-2.83c-.39-.39-1.03-.39-1.42 0a5.003 5.003 0 0 0 0 7.07l-3.54 3.54a5.003 5.003 0 0 1-7.07 0 5.003 5.003 0 0 1 0-7.07l1.49-1.49c-.01.36.04.72.11 1.05l-.92.92a3.5 3.5 0 0 0 0 4.95 3.5 3.5 0 0 0 4.95 0l3.54-3.54a3.5 3.5 0 0 0 0-4.95z"/></svg>
